<svg xmlns="http://www.w3.org/2000/svg" xmlns:xlink="http://www.w3.org/1999/xlink" viewBox="0 0 105.62 173.15"><defs><style>.cls-1{fill:none;}.cls-2{fill:#f4f2ed;}.cls-3{fill:#e8a0a2;}.cls-4{fill:#5c8a5c;}.cls-5{fill:#497e44;}.cls-6{fill:#b1d8b0;}.cls-7{fill:#ecc742;}.cls-8{clip-path:url(#clip-path);}.cls-9{fill:#fff;}.cls-10{fill:#482c80;opacity:0.1;}.cls-11{fill:#d4a000;}</style><clipPath id="clip-path"><path class="cls-1" d="M20.54,127.5v7c0,18.79,13.37,34.16,29.72,34.16h3.45c16.34,0,29.71-15.37,29.71-34.16v-7Z"/></clipPath></defs><g id="Layer_2" data-name="Layer 2"><g id="OBJECTS"><path class="cls-2" d="M105.62,168.65c0,2.49-23.64,4.5-52.81,4.5S0,171.14,0,168.65s23.64-4.49,52.81-4.49S105.62,166.17,105.62,168.65Z"/><path class="cls-3" d="M18.15,62.54S7.19,61,9.21,58.65s7.63,1.56,7.63,1.56-6-5.71-4.06-7.51,5.94,5.84,5.94,5.84-1.1-7.17,1.45-6.83,2.32,9.47.77,10.14A7.83,7.83,0,0,1,18.15,62.54Z"/><path class="cls-4" d="M34.18,84l-3.45,1.67s-8.7-.81-14.08-6.73c-4.35-4.78-5.44-13,2.31-17.33s14.18-3.44,17.62,5.92c3.13,8.5.61,15,.61,15Z"/><path class="cls-5" d="M19.86,61.12C26.78,58,32.46,59.36,35.63,68s.6,15,.6,15l1-.46s2.52-6.51-.61-15C33.27,58.51,27.21,57.38,19.86,61.12Z"/><path class="cls-6" d="M17.76,66.13c.34.69.34,1.39,0,1.55s-.89-.26-1.22-1-.34-1.39,0-1.55S17.43,65.44,17.76,66.13Z"/><path class="cls-6" d="M16.14,70.76c.34.7.33,1.39,0,1.56s-.89-.27-1.23-1-.33-1.39,0-1.56S15.8,70.07,16.14,70.76Z"/><path class="cls-6" d="M20.6,70.15c.34.7.34,1.39,0,1.56s-.89-.27-1.22-1-.34-1.39,0-1.56S20.27,69.46,20.6,70.15Z"/><path class="cls-6" d="M23.19,64.92c.34.7.34,1.39,0,1.56s-.89-.27-1.22-1-.34-1.39,0-1.56S22.86,64.23,23.19,64.92Z"/><path class="cls-6" d="M25.57,69.83c.34.69.33,1.39,0,1.55s-.89-.26-1.23-1-.33-1.39,0-1.55S25.23,69.13,25.57,69.83Z"/><path class="cls-6" d="M26.73,62c.33.69.33,1.39,0,1.55s-.88-.26-1.22-1-.33-1.39,0-1.55S26.39,61.3,26.73,62Z"/><path class="cls-6" d="M29.25,66.49c.33.7.33,1.39,0,1.56s-.88-.27-1.22-1-.33-1.39,0-1.56S28.91,65.8,29.25,66.49Z"/><path class="cls-6" d="M31.22,62.38c.33.7.33,1.39,0,1.56s-.88-.27-1.22-1-.33-1.39,0-1.56S30.88,61.69,31.22,62.38Z"/><path class="cls-6" d="M33.72,66.41c.33.7.33,1.39,0,1.56s-.88-.27-1.22-1-.33-1.39,0-1.56S33.38,65.72,33.72,66.41Z"/><path class="cls-6" d="M36.5,76.22c.34.69.34,1.39,0,1.55s-.89-.26-1.22-1-.34-1.39,0-1.55S36.17,75.52,36.5,76.22Z"/><path class="cls-6" d="M17.52,76.11c.34.7.34,1.39,0,1.56s-.89-.27-1.22-1-.34-1.39,0-1.56S17.19,75.42,17.52,76.11Z"/><path class="cls-6" d="M22.07,74.74c.34.7.33,1.39,0,1.56s-.89-.27-1.23-1-.33-1.39,0-1.56S21.73,74.05,22.07,74.74Z"/><path class="cls-6" d="M21.8,80.4c.33.7.33,1.39,0,1.56s-.88-.27-1.22-1-.33-1.39,0-1.56S21.46,79.71,21.8,80.4Z"/><path class="cls-6" d="M25,77.74c.34.69.34,1.39,0,1.55s-.89-.26-1.22-1-.34-1.39,0-1.55S24.7,77,25,77.74Z"/><path class="cls-6" d="M28.17,73.11c.34.7.34,1.39,0,1.56s-.89-.27-1.22-1-.34-1.39,0-1.56S27.84,72.42,28.17,73.11Z"/><path class="cls-6" d="M31.88,71.92c.34.7.33,1.39,0,1.56s-.88-.27-1.22-1-.33-1.39,0-1.56S31.54,71.23,31.88,71.92Z"/><path class="cls-6" d="M29.35,79.2c.34.7.34,1.39,0,1.56s-.89-.27-1.22-1-.34-1.39,0-1.56S29,78.51,29.35,79.2Z"/><path class="cls-6" d="M36.33,71.81c.34.69.34,1.39,0,1.55s-.89-.26-1.22-1-.34-1.39,0-1.55S36,71.11,36.33,71.81Z"/><path class="cls-6" d="M33.31,77.93c.34.69.34,1.39,0,1.55s-.89-.26-1.23-1-.33-1.39,0-1.55S33,77.24,33.31,77.93Z"/><path class="cls-6" d="M33,82c.34.7.34,1.39,0,1.56s-.89-.27-1.23-1-.33-1.39,0-1.56S32.63,81.32,33,82Z"/><path class="cls-6" d="M27.16,82.12c.34.7.33,1.39,0,1.56s-.89-.27-1.23-1-.33-1.39,0-1.56S26.82,81.43,27.16,82.12Z"/><path class="cls-3" d="M35.38,14.16s-14.27-.75-11.93-4,10,1.16,10,1.16-8.31-6.68-6-9.21,8.27,6.85,8.27,6.85S33.46-.15,36.78,0s4,11.92,2.1,13A10.16,10.16,0,0,1,35.38,14.16Z"/><path class="cls-4" d="M58.34,40l-4.25,2.53s-11.28-.09-18.85-7.11c-6.11-5.67-8.42-16.15,1.07-22.53s17.85-6,23.31,5.67c4.95,10.58,2.43,19.23,2.43,19.23Z"/><path class="cls-5" d="M37.42,12.13c8.54-4.82,16-3.63,21,7.08s2.43,19.23,2.43,19.23l1.18-.7s2.52-8.65-2.43-19.23C54.37,7.31,46.45,6.52,37.42,12.13Z"/><path class="cls-6" d="M35.27,18.81c.51.86.58,1.76.16,2s-1.16-.24-1.67-1.1-.59-1.75-.17-2S34.76,18,35.27,18.81Z"/><path class="cls-6" d="M33.69,25c.51.86.58,1.75.17,2s-1.17-.24-1.68-1.1-.58-1.75-.17-2S33.18,24.09,33.69,25Z"/><path class="cls-6" d="M39.36,23.68c.51.85.58,1.75.17,2s-1.17-.24-1.68-1.1-.58-1.75-.17-2S38.85,22.82,39.36,23.68Z"/><path class="cls-6" d="M42.12,16.66c.5.86.58,1.76.16,2s-1.17-.24-1.68-1.1-.58-1.75-.16-2S41.61,15.81,42.12,16.66Z"/><path class="cls-6" d="M45.71,22.71c.51.86.59,1.75.17,2s-1.17-.24-1.68-1.1-.58-1.75-.17-2S45.2,21.86,45.71,22.71Z"/><path class="cls-6" d="M46.34,12.52c.51.85.58,1.75.16,2s-1.16-.24-1.67-1.1-.59-1.75-.17-2S45.83,11.66,46.34,12.52Z"/><path class="cls-6" d="M50.08,18c.51.85.58,1.75.16,2s-1.17-.25-1.68-1.1-.58-1.75-.16-2S49.57,17.16,50.08,18Z"/><path class="cls-6" d="M52.16,12.52c.51.85.58,1.75.16,2s-1.17-.24-1.68-1.1-.58-1.75-.16-2S51.65,11.66,52.16,12.52Z"/><path class="cls-6" d="M55.81,17.42c.51.86.59,1.75.17,2s-1.17-.24-1.68-1.1-.58-1.75-.17-2S55.3,16.57,55.81,17.42Z"/><path class="cls-6" d="M60.48,29.73c.51.85.58,1.75.16,2s-1.17-.25-1.68-1.1-.58-1.76-.16-2S60,28.87,60.48,29.73Z"/><path class="cls-6" d="M36.06,31.68c.5.85.58,1.75.16,2s-1.17-.25-1.68-1.1-.58-1.75-.16-2S35.55,30.82,36.06,31.68Z"/><path class="cls-6" d="M41.75,29.42c.51.85.59,1.75.17,2s-1.17-.25-1.68-1.1-.58-1.76-.17-2S41.24,28.56,41.75,29.42Z"/><path class="cls-6" d="M42,36.73c.51.85.59,1.75.17,2s-1.17-.24-1.68-1.1-.58-1.75-.16-2S41.51,35.87,42,36.73Z"/><path class="cls-6" d="M45.89,32.94c.51.86.59,1.75.17,2s-1.17-.25-1.68-1.1-.58-1.75-.16-2S45.38,32.08,45.89,32.94Z"/><path class="cls-6" d="M49.42,26.65c.51.85.58,1.75.17,2s-1.17-.25-1.68-1.1-.58-1.76-.17-2S48.91,25.79,49.42,26.65Z"/><path class="cls-6" d="M54.06,24.71c.5.85.58,1.75.16,2s-1.17-.25-1.68-1.1-.58-1.75-.16-2S53.55,23.85,54.06,24.71Z"/><path class="cls-6" d="M51.61,34.35c.51.86.58,1.75.17,2s-1.17-.25-1.68-1.1-.59-1.75-.17-2S51.1,33.49,51.61,34.35Z"/><path class="cls-6" d="M59.77,24.07c.51.86.58,1.75.16,2s-1.16-.24-1.67-1.1-.59-1.75-.17-2S59.26,23.22,59.77,24.07Z"/><path class="cls-6" d="M56.56,32.28c.51.85.58,1.75.16,2s-1.17-.25-1.67-1.1-.59-1.75-.17-2S56.05,31.42,56.56,32.28Z"/><path class="cls-6" d="M56.56,37.57c.51.85.58,1.75.16,2s-1.17-.25-1.67-1.1-.59-1.75-.17-2S56.05,36.71,56.56,37.57Z"/><path class="cls-6" d="M49.11,38.34c.51.86.58,1.76.16,2s-1.16-.24-1.67-1.1-.59-1.75-.17-2S48.6,37.49,49.11,38.34Z"/><path class="cls-4" d="M56.39,81.75l-5.93-3.59s-7.3-14-3.6-28c3-11.29,14.44-21,28.57-13.5s19.14,18.14,8.31,32.57C73.91,82.32,61.55,84.89,61.55,84.89Z"/><path class="cls-5" d="M77,37.6C88.61,45,92.05,55,82.1,68.25,72.27,81.32,59.91,83.89,59.91,83.89l1.64,1s12.36-2.57,22.19-15.64C94.15,55.39,89.91,45.07,77,37.6Z"/><path class="cls-6" d="M62.79,39c-.52.86-1.29,1.35-1.71,1.1s-.33-1.16.19-2S62.56,36.76,63,37,63.31,38.17,62.79,39Z"/><path class="cls-6" d="M66.82,43.15c-.52.86-1.28,1.35-1.7,1.09s-.34-1.16.18-2,1.29-1.35,1.71-1.09S67.35,42.29,66.82,43.15Z"/><path class="cls-6" d="M56.1,42.51c-.52.86-1.28,1.35-1.7,1.1s-.34-1.16.18-2,1.29-1.35,1.71-1.1S56.62,41.65,56.1,42.51Z"/><path class="cls-6" d="M60.64,46c-.52.86-1.28,1.36-1.7,1.1s-.34-1.16.18-2,1.29-1.35,1.71-1.09S61.16,45.13,60.64,46Z"/><path class="cls-6" d="M70.7,38.48c-.53.86-1.29,1.35-1.71,1.09s-.33-1.15.19-2,1.28-1.35,1.7-1.1S71.22,37.62,70.7,38.48Z"/><path class="cls-6" d="M64.47,50.45c-.52.86-1.29,1.35-1.71,1.1s-.33-1.16.19-2,1.29-1.35,1.7-1.1S65,49.59,64.47,50.45Z"/><path class="cls-6" d="M73.73,43.08c-.52.86-1.28,1.35-1.7,1.09s-.34-1.15.18-2,1.29-1.35,1.71-1.09S74.26,42.22,73.73,43.08Z"/><path class="cls-6" d="M79.13,43.6c-.52.86-1.28,1.35-1.7,1.1s-.34-1.16.18-2,1.29-1.35,1.71-1.1S79.66,42.74,79.13,43.6Z"/><path class="cls-6" d="M72,49.58c-.52.86-1.28,1.35-1.7,1.1s-.34-1.16.18-2,1.29-1.35,1.71-1.1S72.55,48.72,72,49.58Z"/><path class="cls-6" d="M83.52,48.39c-.53.86-1.29,1.35-1.71,1.1s-.34-1.16.19-2,1.28-1.35,1.7-1.1S84,47.53,83.52,48.39Z"/><path class="cls-6" d="M68.34,55.66c-.52.86-1.29,1.35-1.7,1.1s-.34-1.16.18-2,1.29-1.35,1.71-1.1S68.86,54.8,68.34,55.66Z"/><path class="cls-6" d="M77.74,51.38c-.53.86-1.29,1.35-1.71,1.1s-.33-1.16.19-2,1.28-1.35,1.7-1.1S78.26,50.52,77.74,51.38Z"/><path class="cls-6" d="M74.6,57.33c-.52.86-1.29,1.35-1.71,1.09s-.33-1.15.19-2,1.28-1.36,1.7-1.1S75.12,56.47,74.6,57.33Z"/><path class="cls-6" d="M82.4,55.88c-.52.86-1.29,1.35-1.71,1.09s-.33-1.16.19-2,1.28-1.35,1.7-1.09S82.92,55,82.4,55.88Z"/><path class="cls-6" d="M87.73,55.84c-.52.86-1.29,1.35-1.71,1.09s-.33-1.15.19-2,1.29-1.35,1.71-1.1S88.25,55,87.73,55.84Z"/><path class="cls-6" d="M77.85,62.16c-.52.86-1.28,1.35-1.7,1.1s-.34-1.16.18-2,1.29-1.35,1.71-1.1S78.37,61.3,77.85,62.16Z"/><path class="cls-6" d="M84.94,62.15c-.52.86-1.29,1.35-1.71,1.1s-.33-1.16.19-2,1.28-1.35,1.7-1.1S85.46,61.29,84.94,62.15Z"/><path class="cls-6" d="M81.39,68c-.53.86-1.29,1.35-1.71,1.1s-.34-1.16.19-2,1.28-1.35,1.7-1.1S81.91,67.14,81.39,68Z"/><path class="cls-6" d="M52.16,47.29c-.52.86-1.29,1.35-1.71,1.1s-.33-1.16.19-2,1.29-1.35,1.71-1.1S52.68,46.43,52.16,47.29Z"/><path class="cls-6" d="M55.76,51.3c-.52.86-1.29,1.35-1.71,1.09s-.33-1.16.19-2,1.29-1.35,1.7-1.09S56.28,50.44,55.76,51.3Z"/><path class="cls-6" d="M50.4,54.64c-.52.86-1.29,1.35-1.71,1.1s-.33-1.16.19-2,1.29-1.35,1.7-1.09S50.92,53.78,50.4,54.64Z"/><path class="cls-6" d="M60.48,55.31c-.52.86-1.29,1.35-1.71,1.09s-.33-1.16.19-2,1.29-1.35,1.71-1.09S61,54.45,60.48,55.31Z"/><path class="cls-6" d="M54.09,59c-.52.86-1.29,1.35-1.71,1.09s-.33-1.16.19-2,1.28-1.35,1.7-1.09S54.61,58.15,54.09,59Z"/><path class="cls-6" d="M50.51,64.9c-.52.86-1.28,1.35-1.7,1.1s-.34-1.16.18-2,1.29-1.35,1.71-1.1S51,64,50.51,64.9Z"/><path class="cls-6" d="M59.3,60.67c-.52.86-1.28,1.35-1.7,1.1s-.34-1.16.18-2,1.29-1.35,1.71-1.1S59.82,59.81,59.3,60.67Z"/><path class="cls-6" d="M66.59,60.84c-.52.86-1.29,1.35-1.71,1.09s-.33-1.16.19-2,1.29-1.35,1.71-1.09S67.11,60,66.59,60.84Z"/><path class="cls-6" d="M70.52,64.05c-.53.86-1.29,1.35-1.71,1.1s-.34-1.16.19-2,1.28-1.35,1.7-1.1S71,63.19,70.52,64.05Z"/><path class="cls-6" d="M60.75,66.44c-.52.86-1.28,1.35-1.7,1.1s-.34-1.16.18-2,1.29-1.35,1.71-1.1S61.28,65.58,60.75,66.44Z"/><path class="cls-6" d="M73.79,68.85c-.52.86-1.28,1.35-1.7,1.09s-.34-1.15.18-2,1.29-1.36,1.71-1.1S74.32,68,73.79,68.85Z"/><path class="cls-6" d="M65,69.87c-.52.86-1.29,1.35-1.71,1.1s-.33-1.16.19-2,1.29-1.35,1.71-1.1S65.47,69,65,69.87Z"/><path class="cls-6" d="M75.76,73.84c-.52.86-1.29,1.35-1.7,1.09s-.34-1.15.18-2,1.29-1.36,1.71-1.1S76.28,73,75.76,73.84Z"/><path class="cls-6" d="M67.3,75.1c-.52.86-1.28,1.35-1.7,1.09s-.34-1.16.18-2,1.29-1.35,1.71-1.09S67.82,74.24,67.3,75.1Z"/><path class="cls-6" d="M56,66.1c-.52.86-1.28,1.36-1.7,1.1s-.34-1.16.18-2,1.29-1.35,1.71-1.09S56.53,65.24,56,66.1Z"/><path class="cls-6" d="M58.07,74.29c-.52.86-1.29,1.35-1.71,1.1s-.33-1.16.19-2,1.28-1.35,1.7-1.1S58.59,73.43,58.07,74.29Z"/><path class="cls-6" d="M71.39,76.75c-.52.86-1.28,1.35-1.7,1.1s-.34-1.16.18-2,1.29-1.35,1.71-1.1S71.92,75.89,71.39,76.75Z"/><path class="cls-6" d="M52.47,71.92c-.52.86-1.28,1.35-1.7,1.09s-.34-1.16.18-2,1.29-1.35,1.71-1.09S53,71.06,52.47,71.92Z"/><path class="cls-6" d="M62.72,78.6c-.52.87-1.29,1.36-1.71,1.1s-.33-1.16.19-2,1.29-1.35,1.71-1.09S63.24,77.74,62.72,78.6Z"/><path class="cls-4" d="M54.31,132.13H46.09s-16-9.7-20.86-26.13c-3.92-13.29,1.69-30.21,20.65-31.26s30.55,6.6,28.45,27.89c-1.91,19.29-12.86,29.5-12.86,29.5Z"/><path class="cls-5" d="M48.06,74.68c16.28.36,25.93,8.39,24,27.95-1.91,19.29-12.85,29.5-12.85,29.5h2.27s11-10.21,12.86-29.5C76.35,82.18,65.71,74.33,48.06,74.68Z"/><path class="cls-6" d="M34.51,84.9c0,1.19-.47,2.16-1,2.16s-1.05-1-1.05-2.16.47-2.16,1.05-2.16S34.51,83.71,34.51,84.9Z"/><path class="cls-6" d="M41.13,86.58c0,1.2-.47,2.16-1.05,2.16S39,87.78,39,86.58s.48-2.16,1.06-2.16S41.13,85.39,41.13,86.58Z"/><path class="cls-6" d="M29.88,92.54c0,1.19-.47,2.16-1.06,2.16s-1.05-1-1.05-2.16.47-2.16,1.05-2.16S29.88,91.34,29.88,92.54Z"/><path class="cls-6" d="M36.62,93.27c0,1.2-.47,2.16-1,2.16s-1.06-1-1.06-2.16.47-2.16,1.06-2.16S36.62,92.08,36.62,93.27Z"/><path class="cls-6" d="M42.18,79.47c0,1.2-.47,2.16-1,2.16s-1.05-1-1.05-2.16.47-2.16,1.05-2.16S42.18,78.28,42.18,79.47Z"/><path class="cls-6" d="M43.24,95.43c0,1.2-.47,2.16-1.06,2.16s-1-1-1-2.16.47-2.16,1-2.16S43.24,94.24,43.24,95.43Z"/><path class="cls-6" d="M48.09,82.26c0,1.2-.47,2.16-1.05,2.16S46,83.46,46,82.26,46.46,80.1,47,80.1,48.09,81.07,48.09,82.26Z"/><path class="cls-6" d="M53.88,79.47c0,1.2-.47,2.16-1.05,2.16s-1-1-1-2.16.47-2.16,1-2.16S53.88,78.28,53.88,79.47Z"/><path class="cls-6" d="M50.37,89.9c0,1.2-.47,2.16-1.06,2.16s-1.05-1-1.05-2.16.47-2.16,1.05-2.16S50.37,88.71,50.37,89.9Z"/><path class="cls-6" d="M61.27,81.63c0,1.2-.47,2.16-1.05,2.16s-1-1-1-2.16.47-2.16,1-2.16S61.27,80.44,61.27,81.63Z"/><path class="cls-6" d="M50.37,98.33c0,1.19-.47,2.16-1.06,2.16s-1.05-1-1.05-2.16.47-2.16,1.05-2.16S50.37,97.14,50.37,98.33Z"/><path class="cls-6" d="M57.26,88.22c0,1.19-.48,2.16-1.06,2.16s-1.05-1-1.05-2.16.47-2.16,1.05-2.16S57.26,87,57.26,88.22Z"/><ellipse class="cls-6" cx="56.68" cy="96.17" rx="1.05" ry="2.16"/><path class="cls-6" d="M64.74,89.9c0,1.2-.47,2.16-1,2.16s-1-1-1-2.16.47-2.16,1-2.16S64.74,88.71,64.74,89.9Z"/><path class="cls-6" d="M70.12,86.58c0,1.2-.47,2.16-1.05,2.16s-1-1-1-2.16.47-2.16,1-2.16S70.12,85.39,70.12,86.58Z"/><path class="cls-6" d="M64,99.07c0,1.19-.48,2.16-1.06,2.16s-1.05-1-1.05-2.16.47-2.16,1.05-2.16S64,97.88,64,99.07Z"/><path class="cls-6" d="M71.18,94.7c0,1.19-.48,2.16-1.06,2.16s-1.05-1-1.05-2.16.47-2.16,1.05-2.16S71.18,93.5,71.18,94.7Z"/><path class="cls-6" d="M71.18,102.81c0,1.19-.48,2.16-1.06,2.16s-1.05-1-1.05-2.16.47-2.16,1.05-2.16S71.18,101.62,71.18,102.81Z"/><path class="cls-6" d="M28.82,99.81c0,1.19-.47,2.16-1.05,2.16s-1.05-1-1.05-2.16.47-2.16,1.05-2.16S28.82,98.61,28.82,99.81Z"/><path class="cls-6" d="M34.93,101.65c0,1.19-.47,2.16-1,2.16s-1.05-1-1.05-2.16.47-2.16,1.05-2.16S34.93,100.46,34.93,101.65Z"/><path class="cls-6" d="M31.56,108.34c0,1.19-.47,2.16-1,2.16s-1.05-1-1.05-2.16.47-2.16,1.05-2.16S31.56,107.15,31.56,108.34Z"/><path class="cls-6" d="M42.18,102.81c0,1.19-.47,2.16-1,2.16s-1.05-1-1.05-2.16.47-2.16,1.05-2.16S42.18,101.62,42.18,102.81Z"/><ellipse class="cls-6" cx="36.94" cy="110.5" rx="1.05" ry="2.16"/><path class="cls-6" d="M38,118.67c0,1.19-.47,2.15-1.05,2.15s-1.06-1-1.06-2.15.47-2.16,1.06-2.16S38,117.47,38,118.67Z"/><path class="cls-6" d="M44.29,109c0,1.2-.47,2.16-1,2.16s-1.06-1-1.06-2.16.48-2.16,1.06-2.16S44.29,107.78,44.29,109Z"/><path class="cls-6" d="M51.78,104.65c0,1.2-.47,2.16-1.06,2.16s-1-1-1-2.16.47-2.16,1-2.16S51.78,103.46,51.78,104.65Z"/><path class="cls-6" d="M57.73,105.5c0,1.19-.47,2.16-1,2.16s-1-1-1-2.16.47-2.16,1-2.16S57.73,104.3,57.73,105.5Z"/><path class="cls-6" d="M49.31,113.92c0,1.2-.47,2.16-1.05,2.16s-1-1-1-2.16.47-2.16,1-2.16S49.31,112.73,49.31,113.92Z"/><path class="cls-6" d="M64,108.34c0,1.19-.48,2.16-1.06,2.16s-1.05-1-1.05-2.16.47-2.16,1.05-2.16S64,107.15,64,108.34Z"/><path class="cls-6" d="M55.68,114.82c0,1.19-.48,2.16-1.06,2.16s-1-1-1-2.16.47-2.16,1-2.16S55.68,113.63,55.68,114.82Z"/><path class="cls-6" d="M69.07,112.19c0,1.19-.47,2.16-1,2.16s-1.06-1-1.06-2.16S67.43,110,68,110,69.07,111,69.07,112.19Z"/><path class="cls-6" d="M61.27,118.67c0,1.19-.47,2.15-1.05,2.15s-1-1-1-2.15.47-2.16,1-2.16S61.27,117.47,61.27,118.67Z"/><path class="cls-6" d="M44.29,116.51c0,1.19-.47,2.16-1,2.16s-1.06-1-1.06-2.16.48-2.16,1.06-2.16S44.29,115.31,44.29,116.51Z"/><path class="cls-6" d="M51.42,123.53c0,1.19-.47,2.16-1.05,2.16s-1.06-1-1.06-2.16.48-2.16,1.06-2.16S51.42,122.34,51.42,123.53Z"/><path class="cls-6" d="M66.44,117.82c0,1.19-.48,2.16-1.06,2.16s-1-1-1-2.16.47-2.16,1-2.16S66.44,116.63,66.44,117.82Z"/><path class="cls-6" d="M44.29,124.56c0,1.2-.47,2.16-1,2.16s-1.06-1-1.06-2.16.48-2.15,1.06-2.15S44.29,123.37,44.29,124.56Z"/><path class="cls-6" d="M58.79,125c0,1.19-.47,2.16-1.06,2.16s-1-1-1-2.16.47-2.16,1-2.16S58.79,123.85,58.79,125Z"/><path class="cls-7" d="M20.54,127.5v7c0,18.79,13.37,34.16,29.72,34.16h3.45c16.34,0,29.71-15.37,29.71-34.16v-7Z"/><g class="cls-8"><rect class="cls-9" x="13.98" y="139.2" width="76.44" height="1.1"/><rect class="cls-9" x="13.98" y="156.2" width="76.44" height="1.1"/></g><path class="cls-10" d="M70.37,127.5v7c0,18.61-4.43,33.87-20.57,34.15h3.91c16.34,0,29.71-15.37,29.71-34.16v-7Z"/><rect class="cls-11" x="17.69" y="124.11" width="68.57" height="6.78"/></g></g></svg>