<svg xmlns="http://www.w3.org/2000/svg" viewBox="0 0 68.44 68.04"><defs><style>.cls-1{fill:#e6e2e0;}.cls-2{fill:#fff;}.cls-3{fill:#664a3b;}.cls-4{fill:#87be00;}.cls-5{fill:#add250;}.cls-6{fill:#5f625e;}</style></defs><g id="Layer_2" data-name="Layer 2"><g id="Layer_1-2" data-name="Layer 1"><path class="cls-1" d="M63.22,64.9V28.72h0a29,29,0,0,0-58,0h0V64.9Z"/><path class="cls-2" d="M23.53,16.23a4.76,4.76,0,1,1-4.76-4.75A4.76,4.76,0,0,1,23.53,16.23Z"/><path class="cls-3" d="M21.22,62.42a47,47,0,0,1,5.55-5.09,11.73,11.73,0,0,1,5.79-2.56,12.2,12.2,0,0,1,6.72,1.49,39.42,39.42,0,0,1,8.19,6.16C43.83,64.92,21.22,62.42,21.22,62.42Z"/><path class="cls-4" d="M49.71,35a6.65,6.65,0,0,1-2.58,3.36c-2,1.26-4.63.92-7,.62s-5-.46-6.9,1c.46-3,1-6.23,3-8.56s5-3.31,7.9-3.86,6-.7,8.8-1.64a7.87,7.87,0,0,0-2.14,4.29A34.7,34.7,0,0,1,49.71,35Z"/><path class="cls-5" d="M40.39,35.67A37.38,37.38,0,0,0,34,39.22c3.36-4.57,10.48-4.91,14-9.34a7,7,0,0,1-3.13,3.7A31.6,31.6,0,0,1,40.39,35.67Z"/><path class="cls-5" d="M39.48,32.26l-4,5.6A11.24,11.24,0,0,0,39.48,32.26Z"/><path class="cls-5" d="M43.25,30.35a15.27,15.27,0,0,1-3,4.71c.5-.37.62,0,1.07-.38A6.53,6.53,0,0,0,43.25,30.35Z"/><path class="cls-5" d="M41.31,34.68c-.09,0-.2,0-.24.12s.16.31.36.33a11.79,11.79,0,0,0,3.08.12,4.07,4.07,0,0,0,2.68-1.39Z"/><path class="cls-5" d="M45.29,36.68a27.65,27.65,0,0,1-7.49-.36c0,.5.52.83,1,1C40.92,37.91,43.18,37.29,45.29,36.68Z"/><path class="cls-4" d="M32.65,31.87A11.12,11.12,0,0,0,25,26.56a22.91,22.91,0,0,0-9.5.37,5.43,5.43,0,0,1,3.16,3.28,26,26,0,0,1,1.1,4.57,9.24,9.24,0,0,0,1.83,4.28,7.38,7.38,0,0,0,6.08,2.1,21.79,21.79,0,0,0,6.38-1.84C34,36.77,33.84,34.12,32.65,31.87Z"/><path class="cls-5" d="M26.42,33.57c-1.37-1.7-2.49-3.83-4.55-4.54,2,1.76,3.18,4.18,4.78,6.27s3.94,4,6.57,3.82A28.12,28.12,0,0,1,26.42,33.57Z"/><path class="cls-5" d="M28.68,31.07a15.92,15.92,0,0,0-.11,3.45,5.37,5.37,0,0,0,1.31,3.14,15.68,15.68,0,0,0-.35-2.35C29.25,33.9,29,32.48,28.68,31.07Z"/><path class="cls-5" d="M25.59,33.86c.15.3.65.13.75-.18s-.62-4.38-1.19-4.75C25.3,30.57,25.45,32.22,25.59,33.86Z"/><path class="cls-5" d="M26,34.44a.57.57,0,0,0,.45-.21.42.42,0,0,0-.18-.51.8.8,0,0,0-.56-.13,10.73,10.73,0,0,1-4-.29A6,6,0,0,0,26,34.44Z"/><path class="cls-5" d="M23.28,36.33a8,8,0,0,0,6,.82l-.18-.58Z"/><path class="cls-4" d="M35.47,56.56c1.07-.36,1.27-1.76,1.29-2.88a54.13,54.13,0,0,0-.26-8.35,18.57,18.57,0,0,0-2.69-7.83A3,3,0,0,0,33,39.84a12.11,12.11,0,0,0,.46,2.53,23.93,23.93,0,0,1-.58,13.05C33.55,56.13,34.51,56.89,35.47,56.56Z"/><rect class="cls-6" y="61.59" width="68.44" height="6.45"/></g></g></svg>