<svg xmlns="http://www.w3.org/2000/svg" viewBox="0 0 169.65 128.23"><defs><style>.cls-1{fill:#231f20;}.cls-2{fill:none;stroke:#231f20;stroke-miterlimit:10;stroke-width:11px;}</style></defs><g id="Layer_2" data-name="Layer 2"><g id="Layer_1-2" data-name="Layer 1"><path class="cls-1" d="M13.88,88.8l40,31.24c6.57,5.14,16.3,3.68,21.73-3.26l30-44.56c5.43-6.94,3.07-17.85-3.5-23L65.17,20.36c-6.57-5.14-11.68.18-17.11,7.12L11.82,66.94C6.39,73.88,7.31,83.67,13.88,88.8Z"/><polygon class="cls-1" points="69.61 88.97 69.94 111.21 131.63 98.4 131.42 84.64 69.61 88.97"/><ellipse class="cls-2" cx="44.62" cy="45.83" rx="42.21" ry="37.08" transform="translate(-18.98 52.62) rotate(-51.86)"/><path class="cls-1" d="M141,106.73c-10.24,1.56-18.7-4.21-18.89-12.89s8-17,18.19-18.55Z"/><path class="cls-1" d="M166.85,110.71a11.75,11.75,0,1,1-20.48,11.52,11.59,11.59,0,0,1-1.5-6.25,11.75,11.75,0,0,1,22-5.27Z"/><polygon class="cls-1" points="144.7 95.3 163.69 107.1 144.92 117.66 144.7 95.3"/><path class="cls-1" d="M162,82a8.2,8.2,0,1,1-8.74,7.62A8.2,8.2,0,0,1,162,82Z"/><polygon class="cls-1" points="144.53 89.03 158.69 82.47 157.66 97.47 144.53 89.03"/></g></g></svg>