<?xml version="1.0" standalone="no"?>
<!DOCTYPE svg PUBLIC "-//W3C//DTD SVG 20010904//EN"
 "http://www.w3.org/TR/2001/REC-SVG-20010904/DTD/svg10.dtd">
<svg version="1.0" xmlns="http://www.w3.org/2000/svg"
 width="904.000000pt" height="904.000000pt" viewBox="0 0 904.000000 904.000000"
 preserveAspectRatio="xMidYMid meet">
<metadata>
Created by potrace 1.14, written by Peter Selinger 2001-2017
</metadata>
<g transform="translate(0.000000,904.000000) scale(0.100000,-0.100000)"
fill="#000000" stroke="none">
<path d="M4458 9022 c-102 -37 -395 -302 -597 -538 -118 -140 -121 -143 -215
-284 -262 -389 -380 -742 -380 -1130 0 -99 11 -268 20 -323 l7 -38 -84 54
c-161 103 -334 185 -530 251 -100 33 -267 78 -334 90 -16 3 -41 8 -55 11 -33
7 -146 25 -190 31 -19 2 -46 7 -60 9 -14 3 -55 7 -92 10 -36 3 -75 7 -85 9
-85 16 -590 24 -753 12 -222 -17 -255 -25 -299 -68 -62 -61 -77 -140 -43 -233
190 -518 597 -1082 1011 -1403 47 -36 88 -69 91 -72 8 -8 172 -116 216 -141
69 -40 317 -164 379 -189 33 -14 79 -34 104 -45 l44 -21 -68 -49 c-349 -248
-665 -615 -860 -996 -84 -165 -179 -410 -200 -518 -2 -9 -10 -43 -18 -76 -9
-33 -18 -76 -21 -95 -3 -19 -8 -46 -11 -60 -5 -26 -10 -61 -24 -175 -9 -69 -7
-472 2 -510 3 -11 8 -45 11 -76 4 -31 9 -67 11 -80 3 -13 8 -40 11 -59 45
-259 189 -625 346 -875 327 -524 821 -934 1423 -1179 124 -50 301 -110 390
-132 33 -8 67 -17 75 -19 28 -7 160 -35 192 -40 18 -3 58 -10 88 -15 30 -5 80
-12 110 -15 30 -4 69 -8 85 -11 57 -9 510 -12 595 -4 134 12 214 21 230 25 8
2 31 7 50 10 40 6 135 23 165 29 77 15 280 72 380 106 756 261 1372 778 1705
1434 117 231 203 481 244 711 2 11 7 38 11 60 4 22 8 56 10 75 2 19 7 69 11
110 34 342 -24 764 -151 1095 -14 39 -29 79 -32 90 -24 81 -245 473 -319 564
-7 9 -35 45 -63 81 -148 188 -426 452 -591 561 -23 15 -23 16 66 52 220 89
431 196 599 305 194 125 402 308 577 504 84 94 278 350 278 366 0 6 3 12 8 14
14 6 125 193 197 333 106 206 165 356 165 418 0 108 -68 181 -184 197 -189 27
-777 29 -929 5 -12 -2 -49 -6 -82 -9 -60 -6 -89 -10 -168 -21 -482 -69 -871
-218 -1210 -463 -58 -41 -87 -57 -83 -45 69 225 83 527 33 748 -35 157 -51
209 -95 321 -58 144 -172 377 -193 394 -3 3 -9 15 -13 28 -4 12 -12 22 -17 22
-5 0 -9 5 -9 12 0 10 -164 265 -179 278 -3 3 -32 40 -64 82 -158 213 -385 461
-447 490 -56 26 -137 30 -192 10z"/>
</g>
</svg>
