<svg xmlns="http://www.w3.org/2000/svg" width="44.197" height="28.125" viewBox="0 0 44.197 28.125">
  <path id="ic_group_24px" d="M31.134,17.054a6.027,6.027,0,1,0-6.027-6.027A6,6,0,0,0,31.134,17.054Zm-16.071,0a6.027,6.027,0,1,0-6.027-6.027A6,6,0,0,0,15.063,17.054Zm0,4.018C10.382,21.071,1,23.422,1,28.1v5.022H29.125V28.1C29.125,23.422,19.743,21.071,15.063,21.071Zm16.071,0c-.583,0-1.246.04-1.949.1,2.33,1.688,3.958,3.958,3.958,6.931v5.022H45.2V28.1C45.2,23.422,35.815,21.071,31.134,21.071Z" transform="translate(-1 -5)" fill="#fff"/>
</svg>
