<svg xmlns="http://www.w3.org/2000/svg" viewBox="0 0 176.08 221.51"><defs><style>.cls-1{fill:#c6dd90;}.cls-2{font-size:84.91px;fill:#5e6f35;font-family:Helvetica-Bold, Helvetica;font-weight:700;}</style></defs><g id="Layer_2" data-name="Layer 2"><g id="Layer_2-2" data-name="Layer 2"><path class="cls-1" d="M86.24,88.87A4.59,4.59,0,0,0,90.88,88s23-22.44,23-43.54S90.88.92,90.88.92A3.51,3.51,0,0,0,86.55.6S60.38,19.44,60.38,44.47C60.38,77.77,86.24,88.87,86.24,88.87Z"/><line class="cls-1" x1="87.97" y1="55.95" x2="87.97" y2="88.93"/><path class="cls-1" d="M92.13,93A3,3,0,0,1,91,89.06s13.4-26.26,33.61-37S174,44.8,174,44.8a2.22,2.22,0,0,1,1.91,3S167.11,74.18,143.15,87C111.27,103.93,92.13,93,92.13,93Z"/><line class="cls-1" x1="126.37" y1="72.11" x2="92.57" y2="90.48"/><path class="cls-1" d="M84,93a3,3,0,0,0,1.18-3.93S71.73,62.8,51.53,52,2.05,44.8,2.05,44.8a2.22,2.22,0,0,0-1.91,3S9,74.18,32.93,87C64.81,103.93,84,93,84,93Z"/><line class="cls-1" x1="49.72" y1="72.11" x2="83.51" y2="90.48"/><ellipse class="cls-1" cx="87.12" cy="147.17" rx="71.49" ry="64.27"/><text class="cls-2" transform="translate(60.38 180.67)">?</text></g></g></svg>