<svg xmlns="http://www.w3.org/2000/svg" viewBox="0 0 119.73 118.14"><defs><style>.cls-1{fill:#95b447;}.cls-2{fill:none;stroke:#fff;stroke-linecap:round;stroke-miterlimit:10;stroke-width:5px;}</style></defs><g id="Layer_2" data-name="Layer 2"><g id="Layer_1-2" data-name="Layer 1"><path class="cls-1" d="M94.13,96.8c-25,24.2-67,22.29-84.8,20.18a10.63,10.63,0,0,1-9.06-9.87c-1-18.36-.39-61.57,24.6-85.77C47.3-.39,83.49-1.07,103.51.54c8.36.68,19.2-5.86,15.45,16.84C115.6,37.72,116.56,75.07,94.13,96.8Z"/><path class="cls-2" d="M3.3,113.91S18.79,85.62,41.81,63.83s49.33-35,49.33-35"/><line class="cls-2" x1="24.36" y1="58.4" x2="21.21" y2="84.29"/><line class="cls-2" x1="21.21" y1="86.3" x2="63.39" y2="82.26"/><line class="cls-2" x1="52.68" y1="53.66" x2="88.07" y2="51.37"/><line class="cls-2" x1="56.49" y1="29" x2="53.66" y2="52.23"/></g></g></svg>