<?xml version="1.0" encoding="utf-8"?>
<!-- Generator: Adobe Illustrator 24.3.0, SVG Export Plug-In . SVG Version: 6.00 Build 0)  -->
<svg version="1.1" id="Layer_1" xmlns="http://www.w3.org/2000/svg" xmlns:xlink="http://www.w3.org/1999/xlink" x="0px" y="0px"
	 viewBox="0 0 105.6 130.8" style="enable-background:new 0 0 105.6 130.8;" xml:space="preserve">
<style type="text/css">
	.st0{fill:#457158;}
	.st1{fill:#72A265;}
	.st2{fill:#5C8A5C;}
	.st3{fill:#ECC742;}
	.st4{clip-path:url(#SVGID_2_);}
	.st5{fill:#FFFFFF;}
	.st6{opacity:0.1;fill:#482C80;enable-background:new    ;}
	.st7{fill:#D4A000;}
</style>
<g id="OBJECTS">
	<path class="st0" d="M39.9,78c0,0-16.6-11.1-21.6-21.9s-8.4-25.3-7.4-26.3s32.5,25.4,40,48.4L39.9,78z"/>
	<path class="st1" d="M13,33.3c5.3,7.3,10.3,14.8,15.6,22.1c2.6,3.7,5.3,7.3,8,10.8c2.7,3.6,5.7,7,8.8,10.2
		c-3.8-2.6-7.2-5.6-10.2-9.1c-1.6-1.7-3-3.5-4.4-5.2s-2.8-3.6-4.1-5.5c-2.6-3.7-5.1-7.5-7.4-11.4C17,41.5,14.9,37.5,13,33.3z"/>
	<path class="st0" d="M54.1,77.9c0,0-8.8-26.2-9.8-41.9S46.9,0.6,49.2,0s29.1,47.7,8.7,77.9L54.1,77.9z"/>
	<path class="st2" d="M50.1,3.6c1.6,5.9,2.9,11.8,4,17.8c0.6,3,1,6,1.5,9s0.8,6,1.1,9.1s0.5,6.1,0.8,9.1s0.3,6.1,0.3,9.2
		c0.1,6.1-0.4,12.2-1.6,18.2c0-1.5,0.1-3,0.2-4.6s0-3,0-4.6s-0.1-3-0.1-4.5l-0.1-2.3L56,57.9c-0.3-6-0.9-12.1-1.5-18.1
		s-1.3-12-2.1-18.1L50.1,3.6z"/>
	<path class="st1" d="M54.1,77.9c0,0-5-18.9,4.4-33.7s21.8-30.6,23.1-30.3s-4.1,47.4-23.7,64H54.1z"/>
	<path class="st0" d="M80.5,16.8c-1.9,5.1-3.9,10-5.9,15l-6.1,14.9l-6.2,14.9c-2,5-4.1,9.9-6.2,14.9c1.3-5.2,2.8-10.4,4.6-15.5
		s3.7-10.1,5.7-15.1S70.6,36,73,31.1S77.8,21.5,80.5,16.8z"/>
	<path class="st2" d="M55.8,77.1c0,0,7-19.3,19.6-26.4s25.4-12.8,27.2-11.7s-6.6,24.6-43,39L55.8,77.1z"/>
	<path class="st1" d="M99.7,41.5c-3.4,2.9-6.8,5.8-10.2,8.7s-6.8,5.7-10.2,8.6l-10.2,8.6c-3.4,2.9-6.8,5.8-10.3,8.6
		c2.9-3.5,5.9-6.8,9.1-9.9c3.2-3.2,6.5-6.2,9.9-9.1s6.9-5.7,10.6-8.3C92,46.2,95.8,43.7,99.7,41.5z"/>
	<path class="st1" d="M62.4,77.4c0,0,7.3-11.3,19.6-13.2s18.8-3.8,19.2-2.8S88.2,76,76.4,77.9S62.4,77.4,62.4,77.4z"/>
	<path class="st0" d="M65.4,77.1c2.5-1.4,5-2.7,7.6-3.8s5.2-2.3,7.8-3.4s5.2-2.1,7.9-3.1s5.3-2,8-2.9c-2.3,1.7-4.7,3.2-7.3,4.5
		c-2.5,1.3-5.1,2.5-7.7,3.6s-5.3,2.1-8,2.9C70.9,75.8,68.2,76.5,65.4,77.1z"/>
	<path class="st2" d="M49.7,76.9c0,0-13.4-11.5-17.8-29.6s-6.2-34.9-4.8-34.8s28.1,30.6,27.7,64.6L49.7,76.9z"/>
	<path class="st0" d="M28.6,16.8c2,4.9,4,9.7,5.8,14.6l5.6,14.7c1.9,4.9,3.8,9.8,5.7,14.6s3.9,9.7,6.1,14.5c-2.9-4.4-5.4-9-7.6-13.8
		c-2.3-4.8-4.2-9.6-6.2-14.5S34.4,37,32.8,32S29.8,22,28.6,16.8z"/>
	<path class="st1" d="M46.6,77.4c0,0-7.4-11.3-19.6-13.2S8.2,60.5,7.8,61.5s13,14.5,24.8,16.5S46.6,77.4,46.6,77.4z"/>
	<path class="st2" d="M43.6,77.1c-2.5-1.4-5-2.7-7.6-3.8s-5.2-2.3-7.8-3.4s-5.2-2.1-7.9-3.1s-5.3-2-8-2.9c2.3,1.7,4.7,3.2,7.3,4.5
		c2.5,1.3,5.1,2.5,7.7,3.6s5.3,2.1,8,2.9C38.1,75.8,40.8,76.5,43.6,77.1z"/>
	<path class="st3" d="M25,80.1v32.6c0,9.9,8.1,18,18,18.1h20c9.9-0.1,18-8.1,18-18.1V80.1H25z"/>
	<g>
		<defs>
			<path id="SVGID_1_" d="M25,80.1v32.6c0,9.9,8.1,18,18,18.1h20c9.9-0.1,18-8.1,18-18.1V80.1H25z"/>
		</defs>
		<clipPath id="SVGID_2_">
			<use xlink:href="#SVGID_1_"  style="overflow:visible;"/>
		</clipPath>
		<g class="st4">
			<path class="st5" d="M84.3,93.7l-5.4,6l-5.4-6c-0.6-0.6-1.5-0.6-2.1,0l-5.4,6c-1.8-2-3.6-4-5.4-6c-0.6-0.6-1.5-0.6-2.1,0l-5.4,6
				c-1.8-2-3.6-4-5.4-6c-0.6-0.6-1.5-0.6-2.1,0l-5.4,6c-1.8-2-3.6-4-5.4-6c-0.6-0.6-1.5-0.6-2.1,0l-5.4,6l-5.4-6
				c-1.3-1.4-3.4,0.7-2.1,2.1L26,103c0.6,0.6,1.5,0.6,2.1,0l5.4-6l5.5,6c0.6,0.6,1.5,0.6,2.1,0l5.4-6c1.8,2,3.6,4,5.4,6
				c0.6,0.5,1.5,0.5,2.1,0c1.8-2,3.6-4,5.4-6l5.4,6c0.6,0.6,1.5,0.6,2.1,0c0,0,0,0,0,0l5.4-6c1.8,2,3.6,4,5.4,6
				c0.6,0.6,1.5,0.6,2.1,0l6.5-7.2C87.7,94.4,85.6,92.2,84.3,93.7z"/>
		</g>
	</g>
	<path class="st6" d="M68.2,80.1v32.6c0,10-8.1,18-18.1,18.1H63c9.9-0.1,18-8.1,18-18.1V80.1H68.2z"/>
	<rect x="20.6" y="76.7" class="st7" width="64.7" height="6.8"/>
</g>
</svg>
