<svg xmlns="http://www.w3.org/2000/svg" viewBox="0 0 155.99 100.5"><defs><style>.cls-1{fill:#5BA8A0;}.cls-2{fill:none;stroke:#5BA8A0;stroke-miterlimit:10;stroke-width:11px;}</style></defs><g id="Layer_2" data-name="Layer 2"><g id="Layer_1-2" data-name="Layer 1"><path class="cls-1" d="M45,100.5l50.72-.11c8.34,0,15.09-7.17,15.08-16l-3.91-53.59c0-8.81-8.61-15.94-17-15.92L43,15c-8.34,0-9.08,7.35-9.06,16.16L29.83,84.58C29.84,93.39,36.61,100.52,45,100.5Z"/><polygon class="cls-1" points="88.88 66.22 102.88 83.5 143.48 35.33 134.82 24.64 88.88 66.22"/><ellipse class="cls-2" cx="42.58" cy="47.72" rx="37.08" ry="42.21"/><path class="cls-1" d="M156,36.1c-7.09,7.55-17.31,8.24-22.82,1.53S128.93,19.36,136,11.81Z"/></g></g></svg>