<svg xmlns="http://www.w3.org/2000/svg" width="85.74" height="93.778" viewBox="0 0 85.74 93.778">
  <path id="ic_local_florist_24px" d="M20.416,62.96a16.764,16.764,0,0,0,26.258,13.8l-.134,1.273a16.746,16.746,0,1,0,33.492,0L79.9,76.759a16.507,16.507,0,0,0,9.512,2.947,16.707,16.707,0,0,0,7.167-31.817A16.723,16.723,0,1,0,79.9,19.019l.134-1.273a16.746,16.746,0,1,0-33.492,0l.134,1.273a16.507,16.507,0,0,0-9.512-2.947,16.707,16.707,0,0,0-7.167,31.817A16.687,16.687,0,0,0,20.416,62.96Zm42.87-31.817A16.746,16.746,0,1,1,46.54,47.889,16.752,16.752,0,0,1,63.286,31.143Z" transform="translate(-20.416 -1)" fill="#3b5284"/>
</svg>
