<svg xmlns="http://www.w3.org/2000/svg" viewBox="0 0 399.52 499.55"><defs><style>.cls-1{fill:#cbe54e;}</style></defs><g id="Layer_2" data-name="Layer 2"><g id="Layer_9" data-name="Layer 9"><path class="cls-1" d="M399.52,302a196,196,0,0,1-5,44.16c-20.29,87.85-99.77,153.4-194.74,153.4-93.65,0-172.22-63.73-193.85-149.73A196,196,0,0,1,0,302C0,192.87,89.44,104.42,199.76,104.42a204.59,204.59,0,0,1,24,1.47q1.68-4.74,3.45-9.56l-10.93-7.91s-27.19,6.85-51.19,3.15S96.83,47.28,96.83,47.28s20.27-28,74.13-20S219.49,84.2,219.49,84.2L228.82,92c11.31-30.24,24.41-59.95,28.75-62.37,0,0,15.87-9.3,24.4,8.63-3.27,4.94-6.29,10.06-9.24,15.19a395.69,395.69,0,0,0-26.93,56.27C333.92,130.33,399.52,208.56,399.52,302Z"/><path class="cls-1" d="M219.49,84.2S224.17-28.93,34.09,7.07C34.09,7.07,108.24,136.85,219.49,84.2Z"/></g></g></svg>