<svg xmlns="http://www.w3.org/2000/svg" viewBox="0 0 237.18 237.18"><defs><style>.cls-1{fill:#FFFFFF;}.cls-2,.cls-3{fill:none;stroke:#FFFFFF;stroke-miterlimit:10;}.cls-2{stroke-width:11px;}.cls-3{stroke-width:4px;}</style></defs><g id="Layer_2" data-name="Layer 2"><g id="Layer_1-2" data-name="Layer 1"><path class="cls-1" d="M45.61,132.1l40,31.24c6.57,5.14,16.3,3.68,21.73-3.26l30-44.56c5.43-6.94,3.07-17.86-3.5-23L96.9,63.66c-6.57-5.14-11.68.17-17.11,7.11L43.55,110.24C38.12,117.18,39,127,45.61,132.1Z"/><polygon class="cls-1" points="101.33 132.27 101.67 154.51 163.35 141.69 163.14 127.94 101.33 132.27"/><ellipse class="cls-2" cx="76.34" cy="89.13" rx="42.21" ry="37.08" transform="translate(-40.91 94.13) rotate(-51.86)"/><path class="cls-1" d="M172.71,150c-10.24,1.56-18.69-4.21-18.89-12.9s8-17,18.19-18.54Z"/><path class="cls-1" d="M199.58,158a11.76,11.76,0,1,1-16-4.48A11.75,11.75,0,0,1,199.58,158Z"/><polygon class="cls-1" points="177.43 142.59 196.42 154.4 177.64 164.96 177.43 142.59"/><path class="cls-1" d="M194.74,129.31a8.2,8.2,0,1,1-8.75,7.62A8.2,8.2,0,0,1,194.74,129.31Z"/><polygon class="cls-1" points="177.26 136.33 191.42 129.77 190.39 144.77 177.26 136.33"/><circle class="cls-3" cx="118.59" cy="118.59" r="117.59"/></g></g></svg>