<svg xmlns="http://www.w3.org/2000/svg" viewBox="0 0 91.06 86.13"><defs><style>.cls-1,.cls-2,.cls-3{fill:#231f20;}.cls-1,.cls-3{stroke:#231f20;stroke-linecap:round;stroke-miterlimit:10;}.cls-1{stroke-width:9px;}.cls-3{stroke-width:3px;}</style></defs><g id="Layer_2" data-name="Layer 2"><g id="Layer_1-2" data-name="Layer 1"><line class="cls-1" x1="45.5" y1="25.14" x2="45.5" y2="72.88"/><path class="cls-2" d="M16.46,28c10.08,4.77,22.31,1.17,27.34-.7a2.64,2.64,0,0,0,1.58-3.36c-1.73-5.07-6.71-16.8-16.79-21.57C19.54-1.91,8.75.55,3,2.45A4.34,4.34,0,0,0,.3,8.17C2.47,13.82,7.41,23.72,16.46,28Z"/><circle class="cls-3" cx="45.5" cy="65.8" r="18.83"/><path class="cls-2" d="M74.6,28c-10.08,4.77-22.31,1.17-27.33-.7a2.64,2.64,0,0,1-1.59-3.36c1.74-5.07,6.72-16.8,16.8-21.57,9.05-4.28,19.83-1.82,25.58.08a4.33,4.33,0,0,1,2.7,5.72C88.59,13.82,83.65,23.72,74.6,28Z"/></g></g></svg>