<svg xmlns="http://www.w3.org/2000/svg" width="23.572" height="27.5" viewBox="0 0 23.572 27.5">
  <path id="ic_local_florist_24px" d="M14.786,28.5A11.787,11.787,0,0,0,26.571,16.714,11.787,11.787,0,0,0,14.786,28.5ZM6.4,13.113a3.277,3.277,0,0,0,5.133,2.7l-.026.249a3.274,3.274,0,0,0,6.548,0l-.026-.249a3.227,3.227,0,0,0,1.86.576,3.266,3.266,0,0,0,1.4-6.22,3.269,3.269,0,1,0-3.261-5.644l.026-.249a3.274,3.274,0,0,0-6.548,0l.026.249a3.227,3.227,0,0,0-1.86-.576,3.266,3.266,0,0,0-1.4,6.22A3.262,3.262,0,0,0,6.4,13.113Zm8.381-6.22a3.274,3.274,0,1,1-3.274,3.274A3.275,3.275,0,0,1,14.786,6.893ZM3,16.714A11.787,11.787,0,0,0,14.786,28.5,11.787,11.787,0,0,0,3,16.714Z" transform="translate(-3 -1)" fill="#fff"/>
</svg>
